PathFileType	4	(X/Y/Z)	C:/Users/beibeiliu/ov580/test_trc\sequence.9_training_dense_left.trc
DataRate	CameraRate	NumFrames	NumMarkers	Units	OrigDataRate	OrigDataStartFrame	OrigNumFrames
120	120	19	19	mm	120	50	398
Frame#	Time	ThumbCMC			ThumbMCP			ThumbIP			ThumbTip			IndexMCP			IndexPIP			IndexTip			MiddleMCP			MiddlePIP			MiddleTip			RingMCP			RingPIP			RingTip			PinkyMCP			PinkyPIP			PinkyTip			BackHand1			BackHand2			BackHand3	
		X0	Y0	Z0	X1	Y1	Z1	X2	Y2	Z2	X3	Y3	Z3	X4	Y4	Z4	X5	Y5	Z5	X6	Y6	Z6	X7	Y7	Z7	X8	Y8	Z8	X9	Y9	Z9	X10	Y10	Z10	X11	Y11	Z11	X12	Y12	Z12	X13	Y13	Z13	X14	Y14	Z14	X15	Y15	Z15	X16	Y16	Z16	X17	Y17	Z17	X18	Y18	Z18	
49	0.408333	-170.744	-44.9823	-5.64793	-171.914	-65.6654	-2.77617	-165.712	-87.6869	-6.20794	-158.924	-105.59	-8.11381	-200.728	-90.1273	-46.3877	-204.603	-110.682	-51.4995	-208.054	-128.573	-58.3034	-223.944	-75.7533	-55.2833	-234.611	-92.0801	-65.9908	-247.754	-107.415	-83.449	-241.308	-58.7765	-50.3197	-253.049	-72.9277	-61.8203	-264.252	-81.3553	-73.9809	-249.36	-40.4567	-36.6833	-265.417	-48.8625	-44.2325	-281.008	-47.3087	-56.2677	-215.584	-26.054	-36.1003	-201.022	-8.54943	-23.75	-188.03	-30.3695	-30.015	
50	0.416667	-171.957	-39.875	-3.65062	-169.683	-66.2137	-1.81464	-164.309	-86.0355	-3.15661	-153.293	-101.706	-3.16712	-198.228	-90.4064	-39.5349	-206.646	-113.3	-47.0002	-206.34	-132.121	-50.4872	-225.428	-81.3744	-50.0616	-235.288	-99.6005	-60.412	-246.14	-114.183	-72.8559	-240.582	-65.0881	-45.782	-256.29	-80.3149	-56.6865	-266.134	-94.1746	-68.7459	-256.86	-48.0601	-34.9441	-269.241	-53.0425	-39.0499	-279.668	-59.2789	-50.5666	-218.003	-28.5087	-33.9682	-207.922	-9.30157	-27.1899	-191.351	-31.9779	-31.1638	
51	0.425	-174.14	-38.675	-3.91536	-166.58	-62.6889	1.6495	-162.425	-83.5103	-0.210198	-148.805	-100.519	-1.13139	-199.409	-95.2962	-38.3008	-202.945	-117.503	-39.8851	-206.738	-140.093	-43.467	-224.023	-87.6946	-46.1756	-229.356	-106.224	-53.4072	-244.875	-128.155	-67.503	-240.119	-75.2167	-42.8918	-252.123	-92.4285	-51.2611	-264.49	-103.664	-58.7291	-258.27	-53.5871	-30.8823	-272.063	-67.4016	-37.1538	-282.055	-76.7907	-45.6473	-221.651	-35.6722	-33.4939	-215.571	-11.8319	-26.2588	-193.186	-35.0143	-32.1878	
52	0.433333	-181.537	-38.1981	-8.1534	-171.272	-57.8793	0.405098	-156.413	-83.1221	-1.74305	-146.501	-94.875	0.480471	-200.042	-95.9289	-36.4045	-201.217	-119.21	-35.3929	-203.712	-143.489	-32.5609	-226.119	-95.9047	-44.5557	-227.65	-113.829	-48.6906	-235.404	-138.241	-55.8148	-244.41	-79.4615	-37.3091	-250.576	-101.228	-44.5698	-261.713	-117.811	-51.4913	-260.289	-64.2017	-27.7711	-272.333	-79.8709	-32.8552	-286.289	-89.6334	-41.9912	-227.106	-41.8804	-31.9506	-223.35	-12.949	-27.5582	-199.054	-37.8603	-33.5689	
53	0.441667	-182.91	-33.5442	-8.32355	-169.52	-58.1791	-2.32778	-155.393	-76.5449	-1.29536	-146.457	-87.9716	0.941845	-197.937	-95.5285	-34.8493	-196.164	-121.252	-30.5945	-194.835	-140.949	-23.3123	-220.661	-100.112	-40.5173	-226.539	-122.358	-43.5967	-233.483	-144.761	-45.9505	-239.747	-88.9853	-35.1723	-249.055	-107.31	-37.4881	-253.464	-125.206	-42.4164	-257.304	-72.7067	-25.8555	-267.378	-89.923	-29.4267	-278.413	-102.06	-35.7958	-234.263	-40.6279	-31.4258	-229.628	-18.5499	-27.6764	-203.352	-38.2576	-34.1844	
54	0.45	-187.675	-35.1038	-11.2539	-175.003	-52.7007	-2.14656	-158.325	-70.7674	-1.75452	-147.526	-82.4367	0.314597	-198.29	-95.6458	-33.7894	-193.579	-123.344	-26.5413	-190.805	-139.244	-14.6392	-225.369	-99.6299	-36.385	-224.054	-126.042	-36.9704	-227.373	-150.353	-36.7755	-243.928	-90.9737	-29.0368	-249.662	-115.097	-31.7541	-249.262	-133.198	-33.9879	-259.198	-80.8757	-21.5172	-265.546	-97.0631	-23.9127	-272.112	-114.27	-27.7683	-239.414	-46.3393	-29.3858	-239.124	-20.884	-22.8937	-210.246	-37.006	-31.6544	
55	0.458333	-195.637	-33.3058	-11.3999	-176.711	-52.9222	-3.30593	-164.392	-68.955	-2.12343	-145.136	-77.5107	-1.35724	-201.113	-94.1362	-32.8889	-193.934	-119.969	-23.0553	-187.971	-136.818	-6.32018	-223.404	-102.073	-33.7901	-221.5	-128.321	-33.1058	-225.556	-149.745	-27.8263	-240.699	-93.6602	-26.5854	-245.854	-122.013	-27.1877	-245.05	-138.923	-27.1811	-260.165	-84.8542	-16.7719	-261.365	-101.652	-19.1747	-270.541	-123.911	-21.09	-241.143	-49.6984	-26.0844	-242.473	-26.4074	-23.8406	-218.657	-35.1659	-33.3359	
56	0.466667	-198.684	-34.3381	-13.9483	-179.902	-50.5373	-4.54552	-163.544	-65.1707	-3.97173	-149.096	-71.6906	-2.126	-199.679	-96.7513	-31.8562	-190.44	-117.76	-20.6823	-182.676	-131.944	-4.1326	-224.279	-106.374	-31.3097	-221.731	-131.543	-26.3899	-221.289	-155.449	-18.4922	-242.167	-97.2594	-22.6445	-243.472	-125.494	-21.481	-238.98	-145.328	-21.6851	-257.818	-86.5204	-12.7754	-260.618	-105.249	-14.4014	-267.24	-127.209	-15.6079	-249.503	-57.3871	-25.3716	-252.697	-27.5766	-22.5228	-222.259	-41.0153	-32.7359	
57	0.475	-205.664	-30.7896	-12.7859	-187.91	-48.6872	-4.03171	-170.565	-66.7072	-3.42226	-154.525	-71.8848	-3.09181	-199.126	-98.2153	-28.1154	-191.993	-117.525	-16.3691	-181.048	-131.146	0.323714	-225.099	-107.505	-27.8888	-220.157	-127.631	-23.3787	-214.584	-155.791	-13.9945	-241.651	-104.576	-20.5793	-239.148	-125.863	-19.2543	-236.064	-142.853	-16.5112	-260.932	-91.1074	-9.01499	-264.652	-111.949	-8.9215	-268.31	-127.912	-11.8516	-252.413	-57.2532	-21.1463	-253.148	-31.1878	-22.9178	-229.671	-40.1302	-32.501	
58	0.483333	-205.809	-28.3071	-13.048	-190.165	-47.5802	-3.14445	-172.771	-59.293	-2.95605	-154.561	-67.4053	-3.81591	-200.33	-94.3554	-26.9347	-190.386	-112.828	-15.185	-178.118	-130.65	2.08329	-223.148	-105.252	-23.7039	-213.332	-130.189	-17.7664	-208.204	-152.797	-15.2054	-241.278	-102.866	-16.9255	-236.039	-126.728	-13.2529	-230.969	-142.263	-12.1442	-261.135	-94.8069	-6.23119	-259.578	-112.357	-6.05525	-263.591	-132.693	-7.72608	-250.183	-60.4793	-22.9438	-258.954	-32.8902	-19.8927	-233.333	-42.4923	-32.1595	
59	0.491667	-209.65	-25.74	-11.974	-191.336	-44.0414	-2.5122	-173.451	-55.937	-2.19889	-155.781	-64.7378	-2.64908	-194.27	-94.4291	-24.091	-181.113	-109.643	-11.7405	-175.319	-122.594	0.693702	-217.141	-107.844	-17.6327	-207.859	-120.572	-13.9398	-206.386	-142.222	-14.9577	-236.05	-107.686	-13.6803	-226.388	-127.504	-10.0626	-222.632	-147.391	-8.30059	-256.823	-96.4448	-3.15472	-254.933	-119.906	-1.34427	-253.664	-133.727	-2.73924	-257.111	-60.5138	-19.2359	-264.002	-37.5639	-19.2246	-232.862	-41.7772	-32.2862	
60	0.5	-213.234	-25.3434	-11.7961	-193.471	-40.9229	-2.39275	-169.999	-53.512	-1.96423	-156.263	-59.4595	-1.82761	-196.009	-89.2721	-23.8909	-181.818	-106.641	-11.7373	-167.933	-122.19	6.39657	-206.808	-103.337	-12.273	-202.44	-111.053	-5.59878	-198.741	-126.305	-18.2364	-230.85	-108.451	-12.4829	-220.928	-128.94	-6.75445	-209.414	-143.877	-3.71905	-250.213	-101.556	-2.60249	-248.165	-120.959	0.560525	-246.286	-138.53	-1.27096	-251.658	-67.7154	-19.2581	-263.929	-40.4949	-17.3392	-238.421	-46.375	-27.4062	
61	0.508333	-213.092	-28.3983	-10.2942	-191.201	-38.3032	-0.0580411	-170.27	-45.3177	0.915483	-149.703	-52.6563	1.56821	-193.709	-91.9051	-22.6261	-175.455	-109.847	-9.71724	-159.464	-115.558	9.06885	-200.824	-106.154	-6.28243	-201.716	-96.0191	3.93458	-199.239	-110.157	-18.223	-228.446	-111.153	-11.2084	-211.249	-132.085	-7.20921	-197.815	-146.447	5.90639	-247.702	-108.952	-0.113727	-239.701	-128.344	1.19184	-230.312	-144.048	3.59516	-248.869	-74.7899	-15.3526	-261.451	-51.3282	-15.3246	-234.409	-47.1407	-29.1181	
62	0.516667	-214.629	-28.2088	-8.13535	-189.051	-39.0098	0.962695	-171.915	-43.5169	3.18253	-149.298	-50.7338	3.59649	-185.229	-92.1049	-20.139	-168.807	-106.028	-8.80086	-155.423	-114.232	14.3945	-195.463	-103.319	-4.38826	-194.777	-92.5877	5.10179	-193.361	-110.177	-14.5809	-219.148	-113.726	-9.81946	-201.827	-130.147	-5.51008	-185.749	-143.432	10.0945	-240.378	-110.179	0.961879	-232.567	-130.051	3.96142	-222.782	-148.385	7.23799	-246.618	-72.3526	-16.3691	-258.39	-53.1191	-15.447	-232.736	-51.0387	-26.0417	
63	0.525	-216.754	-28.3666	-6.09088	-191.431	-35.2754	2.28032	-171.938	-42.8683	4.14164	-151.979	-46.7319	5.09809	-181.743	-86.1852	-15.8379	-164.431	-99.8562	-3.03615	-148.507	-109.781	12.4672	-190.704	-100.371	-2.33112	-180.706	-105.316	2.38239	-170.384	-119.214	-5.37786	-212.712	-108.67	-5.6738	-193.929	-124.954	0.806083	-181.705	-139.688	8.85816	-233.661	-108.443	1.72261	-226.233	-126.924	7.74931	-213.493	-143.693	7.11381	-243.104	-73.2349	-16.096	-263.731	-56.3064	-14.8189	-231.165	-51.2101	-26.925	
64	0.533333	-218.409	-30.1972	-4.47619	-193.496	-30.797	5.69639	-167.099	-39.2057	5.49345	-153.189	-41.838	7.90446	-177.099	-84.3906	-11.9867	-159.062	-95.283	0.189185	-144.361	-101.288	11.2345	-185.185	-98.2024	-7.0765	-170.369	-110.899	1.8433	-156.333	-126.676	1.92043	-206.147	-110.811	-1.4053	-189.831	-121.651	4.55285	-173.417	-134.503	10.1671	-225.329	-109.828	5.6112	-216.807	-125.789	10.7306	-211.191	-141.292	12.0226	-241.638	-76.3403	-13.6749	-259.296	-58.0726	-11.8044	-230.224	-50.5352	-21.8474	
65	0.541667	-217.952	-29.2549	-1.75949	-189.377	-32.2882	5.86877	-171.881	-34.1645	9.62601	-152.42	-35.3433	9.0252	-176.052	-77.981	-12.148	-155.951	-90.9958	2.37328	-137.529	-99.3069	15.7558	-180.931	-96.9207	-6.40183	-165.242	-111.539	4.45148	-150.518	-124.896	11.2206	-197.071	-106.376	1.37426	-180.826	-119.995	8.77567	-167.647	-132.78	14.5229	-217.544	-112.133	10.6006	-211.277	-125.677	17.2365	-198.136	-138.597	13.3431	-239.159	-76.5557	-8.75922	-257.278	-65.0989	-10.3166	-231.793	-53.6508	-19.7317	
66	0.55	-216.466	-28.177	0.340312	-191.226	-26.3379	8.00358	-168.767	-30.6894	10.0532	-150.229	-27.9912	10.5407	-172.073	-74.5053	-9.68856	-151.03	-85.0005	2.88576	-132.273	-91.0794	18.1212	-177.043	-97.4004	-2.76986	-159.204	-104.379	4.04483	-138.743	-119.198	19.5557	-192.611	-106.758	5.55627	-176.832	-120.164	12.226	-160.779	-126.932	17.2199	-215.913	-110.345	14.649	-201.867	-122.415	19.6483	-193.42	-138.668	21.6735	-235.057	-78.3545	-6.42493	-253.327	-67.3011	-4.74945	-229.462	-54.4514	-17.3495	
67	0.558333	-215.347	-27.9118	1.08606	-191.42	-25.4684	10.7693	-166.963	-25.4168	11.1586	-148.643	-27.173	12.5105	-169.315	-74.6275	-4.98905	-147.897	-79.9612	5.96501	-128.47	-84.1572	19.5518	-173.806	-94.1099	1.78158	-152.06	-103.199	11.2648	-133.976	-112.885	24.0935	-187.8	-105.116	9.12571	-167.081	-116.683	16.9149	-150.301	-123.8	22.355	-206.811	-113.311	20.1568	-194.416	-125.083	24.7817	-180.402	-138.098	25.1626	-231.253	-81.8927	-2.97644	-248.533	-69.264	-1.32936	-226.255	-56.513	-13.6439	
